<?xml version="1.0" encoding="utf-8"?>
<!-- Generator: Adobe Illustrator 23.0.3, SVG Export Plug-In . SVG Version: 6.00 Build 0)  -->
<svg version="1.1" id="Layer_1" xmlns="http://www.w3.org/2000/svg" xmlns:xlink="http://www.w3.org/1999/xlink" x="0px" y="0px"
	 viewBox="0 0 260.6 107.4" style="enable-background:new 0 0 260.6 107.4;" xml:space="preserve">
<style type="text/css">
	.st0{fill:#0031C0;}
	.st1{fill:#A3E8E8;}
	.st2{fill:#0B8BD7;}
	.st3{fill:#1445CA;}
	.st4{fill:#8FD4D4;}
	.st5{fill:#0077C3;}
	.st6{fill:#1A9AE6;}
	.st7{fill:#0031B6;}
	.st8{fill:none;stroke:#0031B6;stroke-width:0;stroke-linecap:round;stroke-linejoin:round;}
</style>
<g>
	<path class="st0" d="M143.3,39.7h-6.8V18.5h-9.1v-6h25v6h-9.1V39.7z"/>
	<path class="st0" d="M164.8,31.9h-2.8v7.8h-6.7V12.5c2.8-0.1,7.2-0.2,10.9-0.2c7,0,11.4,3.4,11.4,9.7c0,3.6-1.8,6.6-4.7,8.2
		l6.5,9.5h-8l-5-7.8H164.8z M166.2,26.2c2.8,0,4.6-1.7,4.6-4.2c0-2.7-1.8-4-4.9-4c-1.2,0-2.7,0-4,0v8.1H166.2z"/>
	<path class="st0" d="M206.9,27.4c0,8.1-4.9,12.9-12.8,12.9c-7.8,0-12.7-4.8-12.7-12.9V12.5h6.8v14.9c0,4.2,2.3,6.6,5.9,6.6
		c3.6,0,6-2.4,6-6.6V12.5h6.8V27.4z"/>
	<path class="st0" d="M231.8,19.7c-3.8-1.2-7.2-1.8-9.5-1.8c-2.4,0-3.8,0.7-3.8,2.4c0,1.8,2.2,2.2,6,3c5.6,1.2,9.3,3,9.3,8.2
		c0,5.8-4.5,8.8-11.4,8.8c-3.5,0-7.9-0.8-12.1-2.4l1.5-6c4.4,1.6,7.9,2.3,10.3,2.3c2.9,0,4.4-0.8,4.4-2.3c0-2.2-3.1-2.6-6.5-3.3
		c-6.1-1.3-8.9-3.2-8.9-8c0-5.4,4.3-8.6,11.1-8.6c3.8,0,8.2,0.8,11,1.8L231.8,19.7z"/>
	<path class="st0" d="M251.2,39.7h-6.8V18.5h-9.1v-6h25v6h-9.1V39.7z"/>
</g>
<g>
	<path class="st0" d="M155.8,62.1c0,8.5-5.8,14.2-14.3,14.2s-14.3-5.7-14.3-14.2c0-8.5,5.8-14.2,14.3-14.2S155.8,53.6,155.8,62.1z
		 M152.8,62.1c0-6.9-4.6-11.5-11.4-11.5c-6.7,0-11.3,4.6-11.3,11.5s4.6,11.6,11.3,11.6C148.2,73.7,152.8,69,152.8,62.1z"/>
	<path class="st0" d="M167.4,75.7l-8.6-18.5h3l7.1,15.3l7-15.3h3l-8.6,18.5H167.4z"/>
	<path class="st0" d="M198.7,65.4c0,0.9,0,1.2-0.2,2.1h-15.4c0.4,3.8,3.1,6.3,7.2,6.3c2.4,0,4.3-0.4,6.8-1l0.4,2.2
		c-2.4,0.7-4.5,1.3-7.3,1.3c-6.3,0-10-4.1-10-9.9c0-5.9,4-9.8,9.6-9.8C195.1,56.6,198.7,60,198.7,65.4z M183.1,65.4h13.1
		c0-4-2.6-6.5-6.3-6.5C186,58.9,183.4,61.4,183.1,65.4z"/>
	<path class="st0" d="M213.7,59.5c-2.7,0-4.8,0.1-7.6,0.4v15.8h-2.8v-18c3.4-0.6,6.8-1,10.3-1V59.5z"/>
	<path class="st0" d="M233,75.7h-6.8V48.5h6.8V75.7z"/>
	<path class="st0" d="M260.6,58.2c0,6.2-4.6,10.1-11.8,10.1H245v7.4h-6.7V48.5c3.2-0.2,6.8-0.3,10.5-0.3
		C256,48.2,260.6,51.9,260.6,58.2z M249.2,62.5c2.8,0,4.7-1.6,4.7-4.2c0-2.7-2-4.2-4.7-4.2c-1.4,0-2.8,0-4.2,0.1v8.3H249.2z"/>
</g>
<g>
	<path class="st0" d="M136.3,90.2v3.1h-5.7v4.6h-3.4V84.3h10v3h-6.6v2.9H136.3z"/>
	<path class="st0" d="M152.9,91.1c0,4.3-3,7.1-7.3,7.1c-4.3,0-7.3-2.8-7.3-7.1s3-7.1,7.3-7.1C149.9,84,152.9,86.8,152.9,91.1z
		 M149.5,91.1c0-2.4-1.6-4-3.8-4c-2.2,0-3.8,1.6-3.8,4s1.6,4,3.8,4C147.9,95.1,149.5,93.5,149.5,91.1z"/>
	<path class="st0" d="M167.5,91.7c0,4-2.5,6.4-6.4,6.4c-3.9,0-6.3-2.4-6.3-6.4v-7.5h3.4v7.5c0,2.1,1.1,3.3,2.9,3.3s3-1.2,3-3.3v-7.5
		h3.4V91.7z"/>
	<path class="st0" d="M182.6,97.9h-3.1l-6.3-7.9v7.9h-3.4V84.3h3.1l6.3,8v-8h3.4V97.9z"/>
	<path class="st0" d="M197.8,91c0,4.3-3,7-7.1,7c-2,0-3.9-0.1-5.4-0.2V84.3c1.5-0.1,3.2-0.2,5.1-0.2C194.8,84.1,197.8,86.8,197.8,91
		z M194.3,91c0-2.4-1.6-3.9-3.8-3.9c-0.6,0-1.2,0-1.8,0V95c0.7,0,1.4,0,2.1,0C192.7,95,194.3,93.4,194.3,91z"/>
	<path class="st0" d="M201.6,97.9h-3.7l6.1-13.7h3.1l6,13.7h-3.7l-0.9-2.2h-6L201.6,97.9z M203.7,92.8h3.7l-1.9-4.5L203.7,92.8z"/>
	<path class="st0" d="M219.8,97.9h-3.4V87.3h-4.6v-3h12.5v3h-4.6V97.9z"/>
	<path class="st0" d="M229.1,97.9h-3.4V84.3h3.4V97.9z"/>
	<path class="st0" d="M245.7,91.1c0,4.3-3,7.1-7.3,7.1c-4.3,0-7.3-2.8-7.3-7.1s3-7.1,7.3-7.1C242.7,84,245.7,86.8,245.7,91.1z
		 M242.2,91.1c0-2.4-1.6-4-3.8-4c-2.2,0-3.8,1.6-3.8,4s1.6,4,3.8,4C240.6,95.1,242.2,93.5,242.2,91.1z"/>
	<path class="st0" d="M260.6,97.9h-3.1l-6.3-7.9v7.9h-3.4V84.3h3.1l6.3,8v-8h3.4V97.9z"/>
</g>
<path class="st1" d="M72,2.7c3.6-2.1,6.8-2.2,9.2-0.8l26.1,15.2c0,0,0.1,0.1,0.1,0.1c-2.3-1.4-5.6-1.2-9.1,0.8L51.4,45l-46-26.7
	c-7.2-4.2-7.2-10.9,0-15.1s18.9-4.2,26.1,0l20,11.4L72,2.7"/>
<ellipse id="Axonometric_Centered_Ellipse_21_" class="st2" cx="18.5" cy="10.7" rx="11.1" ry="6.4"/>
<path class="st3" d="M78.1,82.6c0,4.2-1.4,7.1-3.8,8.5l-26.7,15.3c0,0,0,0,0,0c2.3-1.4,3.8-4.3,3.8-8.5l0-53l46.8-27
	c7.1-4.1,12.9-0.7,12.9,7.7c0,8.4-5.8,18.5-12.9,22.6L78.1,59.9L78.1,82.6z"/>
<ellipse id="Axonometric_Centered_Ellipse_20_" transform="matrix(0.4895 -0.872 0.872 0.4895 21.2408 102.6172)" class="st1" cx="98.3" cy="33.2" rx="11.1" ry="6.4"/>
<ellipse id="Axonometric_Centered_Ellipse_28_" transform="matrix(0.4895 -0.872 0.872 0.4895 21.2408 102.6172)" class="st1" cx="98.3" cy="33.2" rx="11.1" ry="6.4"/>
<path class="st2" d="M25.5,83c0,8.4,5.8,18.5,12.9,22.6c7.1,4.1,12.9,0.7,12.9-7.7l0-53l-46-26.7C1.8,16.1,0,13.4,0,10.7v30.6
	c0,2.7,1.8,5.5,5.4,7.5l20.1,11.6L25.5,83z"/>
<ellipse id="Axonometric_Centered_Ellipse_19_" transform="matrix(0.872 -0.4895 0.4895 0.872 -39.3517 30.4143)" class="st3" cx="38.5" cy="90.5" rx="6.4" ry="11.1"/>
<path class="st4" d="M81.2,1.9c-2-1.2-4.6-1.3-7.5,0L100,17.2c2.6-1.1,5-1.2,6.8-0.3c0,0,0.1,0,0.1,0L81.2,1.9z"/>
<path class="st4" d="M104.1,35.8l-11-6.4c-0.3,0.6-0.7,1.2-1,1.8l11,6.4C103.4,37,103.8,36.4,104.1,35.8z"/>
<path class="st4" d="M90.5,37.7c0,5,3.5,7.1,7.8,4.6c1.3-0.8,2.5-1.8,3.6-3.1L91.4,33C90.8,34.6,90.5,36.1,90.5,37.7z"/>
<path class="st5" d="M10.6,6.1C8.5,7.4,7.4,9,7.4,10.7c0,1.6,1.1,3.3,3.3,4.5c1.4,0.8,3,1.3,4.7,1.6V4.5C13.7,4.8,12,5.4,10.6,6.1z"
	/>
<path class="st5" d="M17.4,4.3V17c0.7,0,1.3,0,2,0V4.3C18.7,4.3,18.1,4.3,17.4,4.3z"/>
<path class="st6" d="M0,10.7v30.6c0,2.3,1.3,4.6,3.9,6.6V17.2C1.3,15.3,0,13,0,10.7z"/>
<path class="st7" d="M47.6,106.5C47.6,106.4,47.6,106.4,47.6,106.5l26.7-15.3c2-1.2,3.4-3.6,3.7-6.9L51.3,99.6
	C51,102.9,49.7,105.2,47.6,106.5z"/>
<g>
	<line class="st8" x1="22.6" y1="91.1" x2="22.6" y2="91.1"/>
	<line class="st8" x1="49.3" y1="75.8" x2="49.3" y2="75.8"/>
</g>
<g>
	<line class="st8" x1="52" y1="80" x2="52" y2="80"/>
	<line class="st8" x1="25.3" y1="95.3" x2="25.3" y2="95.3"/>
</g>
<path class="st7" d="M38.5,81.4c-4.3-2.5-7.8-0.4-7.8,4.6c0,1.5,0.3,3.1,0.8,4.6l10.6-6.1C41,83.2,39.8,82.1,38.5,81.4z"/>
<path class="st7" d="M43.3,86.1l-11,6.3c0.3,0.6,0.6,1.2,1,1.8l11.1-6.3C44,87.3,43.7,86.7,43.3,86.1z"/>
</svg>
