<?xml version="1.0" encoding="UTF-8" standalone="no"?><svg xmlns="http://www.w3.org/2000/svg" xmlns:xlink="http://www.w3.org/1999/xlink" contentStyleType="text/css" height="887px" preserveAspectRatio="none" style="width:1532px;height:887px;background:#FFFFFF;" version="1.1" viewBox="0 0 1532 887" width="1532px" zoomAndPan="magnify"><defs/><g><rect fill="none" height="26.4883" id="_title" style="stroke:none;stroke-width:1.0;" width="430" x="544" y="5"/><text fill="#000000" font-family="sans-serif" font-size="14" font-weight="bold" lengthAdjust="spacing" textLength="420" x="549" y="23.5352">Trust Over IP Trust Registry Protocol v2 Early Exploration</text><!--MD5=[3a621f14500935b052dfa846c69f4ca7]
cluster QueryDataObjects--><g id="cluster_QueryDataObjects"><path d="M8.5,558.4883 L140.5,558.4883 A3.75,3.75 0 0 1 143,560.9883 L150,580.9766 L660.5,580.9766 A2.5,2.5 0 0 1 663,583.4766 L663,700.9883 A2.5,2.5 0 0 1 660.5,703.4883 L8.5,703.4883 A2.5,2.5 0 0 1 6,700.9883 L6,560.9883 A2.5,2.5 0 0 1 8.5,558.4883 " fill="none" style="stroke:#000000;stroke-width:1.5;"/><line style="stroke:#000000;stroke-width:1.5;" x1="6" x2="150" y1="580.9766" y2="580.9766"/><text fill="#000000" font-family="sans-serif" font-size="14" font-weight="bold" lengthAdjust="spacing" textLength="131" x="10" y="574.0234">QueryDataObjects</text></g><!--MD5=[5cdc0902bc025c3bb9858f3a7555089d]
cluster Lookups--><g id="cluster_Lookups"><path d="M689.5,544.4883 L751.5,544.4883 A3.75,3.75 0 0 1 754,546.9883 L761,566.9766 L1522.5,566.9766 A2.5,2.5 0 0 1 1525,569.4766 L1525,877.9883 A2.5,2.5 0 0 1 1522.5,880.4883 L689.5,880.4883 A2.5,2.5 0 0 1 687,877.9883 L687,546.9883 A2.5,2.5 0 0 1 689.5,544.4883 " fill="none" style="stroke:#000000;stroke-width:1.5;"/><line style="stroke:#000000;stroke-width:1.5;" x1="687" x2="761" y1="566.9766" y2="566.9766"/><text fill="#000000" font-family="sans-serif" font-size="14" font-weight="bold" lengthAdjust="spacing" textLength="61" x="691" y="560.0234">Lookups</text></g><!--MD5=[deb9a7dd478a081ee0b535d69e03ddf6]
cluster LookupLists--><g id="cluster_LookupLists"><path d="M790.5,587.4883 L879.5,587.4883 A3.75,3.75 0 0 1 882,589.9883 L889,609.9766 L1385.5,609.9766 A2.5,2.5 0 0 1 1388,612.4766 L1388,671.9883 A2.5,2.5 0 0 1 1385.5,674.4883 L790.5,674.4883 A2.5,2.5 0 0 1 788,671.9883 L788,589.9883 A2.5,2.5 0 0 1 790.5,587.4883 " fill="none" style="stroke:#000000;stroke-width:1.5;"/><line style="stroke:#000000;stroke-width:1.5;" x1="788" x2="889" y1="609.9766" y2="609.9766"/><text fill="#000000" font-family="sans-serif" font-size="14" font-weight="bold" lengthAdjust="spacing" textLength="88" x="792" y="603.0234">LookupLists</text></g><!--MD5=[9fc06df6b544b489ec91c2a1c10a7a19]
cluster LookupDataObjects--><g id="cluster_LookupDataObjects"><path d="M713.5,727.4883 L855.5,727.4883 A3.75,3.75 0 0 1 858,729.9883 L865,749.9766 L1498.5,749.9766 A2.5,2.5 0 0 1 1501,752.4766 L1501,853.9883 A2.5,2.5 0 0 1 1498.5,856.4883 L713.5,856.4883 A2.5,2.5 0 0 1 711,853.9883 L711,729.9883 A2.5,2.5 0 0 1 713.5,727.4883 " fill="none" style="stroke:#000000;stroke-width:1.5;"/><line style="stroke:#000000;stroke-width:1.5;" x1="711" x2="865" y1="749.9766" y2="749.9766"/><text fill="#000000" font-family="sans-serif" font-size="14" font-weight="bold" lengthAdjust="spacing" textLength="141" x="715" y="743.0234">LookupDataObjects</text></g><path d="M1034.5,66.4883 L1061.5,66.4883 A3.75,3.75 0 0 1 1064,68.9883 L1071,88.9766 L1075.5,88.9766 A2.5,2.5 0 0 1 1078,91.4766 L1078,116.9648 A2.5,2.5 0 0 1 1075.5,119.4648 L1034.5,119.4648 A2.5,2.5 0 0 1 1032,116.9648 L1032,68.9883 A2.5,2.5 0 0 1 1034.5,66.4883 " fill="#F1F1F1" style="stroke:#181818;stroke-width:0.5;"/><line style="stroke:#181818;stroke-width:0.5;" x1="1032" x2="1071" y1="88.9766" y2="88.9766"/><text fill="#000000" font-family="sans-serif" font-size="14" lengthAdjust="spacing" textLength="26" x="1036" y="82.0234">EGF</text><g id="elem_AuthorizationResponse"><rect fill="#F1F1F1" height="36.4883" style="stroke:#181818;stroke-width:0.5;" width="175" x="471.5" y="622.4883"/><text fill="#000000" font-family="sans-serif" font-size="14" lengthAdjust="spacing" textLength="161" x="478.5" y="638.0234">AuthorizationResponse</text><line style="stroke:#181818;stroke-width:0.5;" x1="472.5" x2="645.5" y1="642.9766" y2="642.9766"/></g><g id="elem_RegistryRecognitionResponse"><rect fill="#F1F1F1" height="94.4414" style="stroke:#181818;stroke-width:0.5;" width="217" x="219.5" y="593.4883"/><text fill="#000000" font-family="sans-serif" font-size="14" lengthAdjust="spacing" textLength="203" x="226.5" y="609.0234">RegistryRecognitionResponse</text><line style="stroke:#181818;stroke-width:0.5;" x1="220.5" x2="435.5" y1="613.9766" y2="613.9766"/><text fill="#000000" font-family="sans-serif" font-size="14" lengthAdjust="spacing" textLength="94" x="225.5" y="631.5117">identifier: DID</text><text fill="#000000" font-family="sans-serif" font-size="14" lengthAdjust="spacing" textLength="86" x="225.5" y="648">name: string</text><text fill="#000000" font-family="sans-serif" font-size="14" lengthAdjust="spacing" textLength="111" x="225.5" y="664.4883">peerType: enum</text><text fill="#000000" font-family="sans-serif" font-size="14" lengthAdjust="spacing" textLength="125" x="225.5" y="680.9766">description: string</text></g><g id="elem_Resource"><rect fill="#F1F1F1" height="94.4414" style="stroke:#181818;stroke-width:0.5;" width="162" x="22" y="593.4883"/><text fill="#000000" font-family="sans-serif" font-size="14" lengthAdjust="spacing" textLength="63" x="71.5" y="609.0234">Resource</text><line style="stroke:#181818;stroke-width:0.5;" x1="23" x2="183" y1="613.9766" y2="613.9766"/><text fill="#000000" font-family="sans-serif" font-size="14" lengthAdjust="spacing" textLength="93" x="28" y="631.5117">identifier: URI</text><text fill="#000000" font-family="sans-serif" font-size="14" lengthAdjust="spacing" textLength="150" x="28" y="648">lastUpdated: datetime</text><text fill="#000000" font-family="sans-serif" font-size="14" lengthAdjust="spacing" textLength="107" x="28" y="664.4883">datatype: string</text><text fill="#000000" font-family="sans-serif" font-size="14" lengthAdjust="spacing" textLength="128" x="28" y="680.9766">payloadJSON: JSON</text></g><g id="elem_DIDMethodList"><rect fill="#F1F1F1" height="36.4883" style="stroke:#181818;stroke-width:0.5;" width="113" x="1258.5" y="622.4883"/><text fill="#000000" font-family="sans-serif" font-size="14" lengthAdjust="spacing" textLength="99" x="1265.5" y="638.0234">DIDMethodList</text><line style="stroke:#181818;stroke-width:0.5;" x1="1259.5" x2="1370.5" y1="642.9766" y2="642.9766"/></g><g id="elem_RoleList"><rect fill="#F1F1F1" height="36.4883" style="stroke:#181818;stroke-width:0.5;" width="67" x="1156.5" y="622.4883"/><text fill="#000000" font-family="sans-serif" font-size="14" lengthAdjust="spacing" textLength="53" x="1163.5" y="638.0234">RoleList</text><line style="stroke:#181818;stroke-width:0.5;" x1="1157.5" x2="1222.5" y1="642.9766" y2="642.9766"/></g><g id="elem_ResourceTypeList"><rect fill="#F1F1F1" height="36.4883" style="stroke:#181818;stroke-width:0.5;" width="133" x="988.5" y="622.4883"/><text fill="#000000" font-family="sans-serif" font-size="14" lengthAdjust="spacing" textLength="119" x="995.5" y="638.0234">ResourceTypeList</text><line style="stroke:#181818;stroke-width:0.5;" x1="989.5" x2="1120.5" y1="642.9766" y2="642.9766"/></g><g id="elem_AssuranceLevelsList"><rect fill="#F1F1F1" height="36.4883" style="stroke:#181818;stroke-width:0.5;" width="149" x="804.5" y="622.4883"/><text fill="#000000" font-family="sans-serif" font-size="14" lengthAdjust="spacing" textLength="135" x="811.5" y="638.0234">AssuranceLevelsList</text><line style="stroke:#181818;stroke-width:0.5;" x1="805.5" x2="952.5" y1="642.9766" y2="642.9766"/></g><g id="elem_DIDMethod"><rect fill="#F1F1F1" height="44.9766" style="stroke:#181818;stroke-width:0.5;" width="135" x="1349.5" y="778.9883"/><text fill="#000000" font-family="sans-serif" font-size="14" lengthAdjust="spacing" textLength="76" x="1379" y="794.5234">DIDMethod</text><line style="stroke:#181818;stroke-width:0.5;" x1="1350.5" x2="1483.5" y1="799.4766" y2="799.4766"/><text fill="#000000" font-family="sans-serif" font-size="14" lengthAdjust="spacing" textLength="123" x="1355.5" y="817.0117">didmethod: string</text></g><g id="elem_Role"><rect fill="#F1F1F1" height="44.9766" style="stroke:#181818;stroke-width:0.5;" width="125" x="1189.5" y="778.9883"/><text fill="#000000" font-family="sans-serif" font-size="14" lengthAdjust="spacing" textLength="30" x="1237" y="794.5234">Role</text><line style="stroke:#181818;stroke-width:0.5;" x1="1190.5" x2="1313.5" y1="799.4766" y2="799.4766"/><text fill="#000000" font-family="sans-serif" font-size="14" lengthAdjust="spacing" textLength="113" x="1195.5" y="817.0117">rolename: string</text></g><g id="elem_ResourceType"><rect fill="#F1F1F1" height="77.9531" style="stroke:#181818;stroke-width:0.5;" width="199" x="955.5" y="762.4883"/><text fill="#000000" font-family="sans-serif" font-size="14" lengthAdjust="spacing" textLength="96" x="1007" y="778.0234">ResourceType</text><line style="stroke:#181818;stroke-width:0.5;" x1="956.5" x2="1153.5" y1="782.9766" y2="782.9766"/><text fill="#000000" font-family="sans-serif" font-size="14" lengthAdjust="spacing" textLength="187" x="961.5" y="800.5117">resourceTypeIdentifier: DID</text><text fill="#000000" font-family="sans-serif" font-size="14" lengthAdjust="spacing" textLength="182" x="961.5" y="817">resourceTypeString: string</text><text fill="#000000" font-family="sans-serif" font-size="14" lengthAdjust="spacing" textLength="125" x="961.5" y="833.4883">description: string</text></g><g id="elem_AssuranceLevel"><rect fill="#F1F1F1" height="61.4648" style="stroke:#181818;stroke-width:0.5;" width="193" x="727.5" y="770.9883"/><text fill="#000000" font-family="sans-serif" font-size="14" lengthAdjust="spacing" textLength="105" x="771.5" y="786.5234">AssuranceLevel</text><line style="stroke:#181818;stroke-width:0.5;" x1="728.5" x2="919.5" y1="791.4766" y2="791.4766"/><text fill="#000000" font-family="sans-serif" font-size="14" lengthAdjust="spacing" textLength="181" x="733.5" y="809.0117">AssuranceIdentifier: string</text><text fill="#000000" font-family="sans-serif" font-size="14" lengthAdjust="spacing" textLength="158" x="733.5" y="825.5">AssuranceName: string</text></g><!--MD5=[402a8fe1e6a67cc1cdd0f7841a868e23]
class TrustRegistry--><g id="elem_TrustRegistry"><rect codeLine="11" fill="#F1F1F1" height="80.9766" id="TrustRegistry" rx="2.5" ry="2.5" style="stroke:#181818;stroke-width:0.5;" width="201" x="954" y="221.4883"/><ellipse cx="1004.75" cy="237.4883" fill="#ADD1B2" rx="11" ry="11" style="stroke:#181818;stroke-width:1.0;"/><path d="M1007.2231,243.6313 Q1006.6421,243.9302 1006.0029,244.0796 Q1005.3638,244.229 1004.6582,244.229 Q1002.1514,244.229 1000.8315,242.5771 Q999.5117,240.9253 999.5117,237.8042 Q999.5117,234.6748 1000.8315,233.0229 Q1002.1514,231.3711 1004.6582,231.3711 Q1005.3638,231.3711 1006.0112,231.5205 Q1006.6587,231.6699 1007.2231,231.9688 L1007.2231,234.6914 Q1006.5923,234.1104 1005.9988,233.8406 Q1005.4053,233.5708 1004.7744,233.5708 Q1003.4297,233.5708 1002.7449,234.6375 Q1002.0601,235.7041 1002.0601,237.8042 Q1002.0601,239.896 1002.7449,240.9626 Q1003.4297,242.0293 1004.7744,242.0293 Q1005.4053,242.0293 1005.9988,241.7595 Q1006.5923,241.4897 1007.2231,240.9087 Z " fill="#000000"/><text fill="#000000" font-family="sans-serif" font-size="14" lengthAdjust="spacing" textLength="91" x="1025.25" y="242.7793">TrustRegistry</text><line style="stroke:#181818;stroke-width:0.5;" x1="955" x2="1154" y1="253.4883" y2="253.4883"/><text fill="#000000" font-family="sans-serif" font-size="14" lengthAdjust="spacing" textLength="49" x="960" y="271.0234">EGFURI</text><text fill="#000000" font-family="sans-serif" font-size="14" lengthAdjust="spacing" textLength="189" x="960" y="287.5117">RegistryMetadata: Metadata</text><line style="stroke:#181818;stroke-width:0.5;" x1="955" x2="1154" y1="294.4648" y2="294.4648"/></g><!--MD5=[13da9bac1dbd72d3681aa02ec7df7780]
class RegistryOfRegistries--><g id="elem_RegistryOfRegistries"><rect codeLine="16" fill="#F1F1F1" height="97.4648" id="RegistryOfRegistries" rx="2.5" ry="2.5" style="stroke:#181818;stroke-width:0.5;" width="170" x="1113" y="44.4883"/><ellipse cx="1128" cy="60.4883" fill="#ADD1B2" rx="11" ry="11" style="stroke:#181818;stroke-width:1.0;"/><path d="M1130.4731,66.6313 Q1129.8921,66.9302 1129.2529,67.0796 Q1128.6138,67.229 1127.9082,67.229 Q1125.4014,67.229 1124.0815,65.5771 Q1122.7617,63.9253 1122.7617,60.8042 Q1122.7617,57.6748 1124.0815,56.0229 Q1125.4014,54.3711 1127.9082,54.3711 Q1128.6138,54.3711 1129.2612,54.5205 Q1129.9087,54.6699 1130.4731,54.9688 L1130.4731,57.6914 Q1129.8423,57.1104 1129.2488,56.8406 Q1128.6553,56.5708 1128.0244,56.5708 Q1126.6797,56.5708 1125.9949,57.6375 Q1125.3101,58.7041 1125.3101,60.8042 Q1125.3101,62.896 1125.9949,63.9626 Q1126.6797,65.0293 1128.0244,65.0293 Q1128.6553,65.0293 1129.2488,64.7595 Q1129.8423,64.4897 1130.4731,63.9087 Z " fill="#000000"/><text fill="#000000" font-family="sans-serif" font-size="14" lengthAdjust="spacing" textLength="138" x="1142" y="65.7793">RegistryOfRegistries</text><line style="stroke:#181818;stroke-width:0.5;" x1="1114" x2="1282" y1="76.4883" y2="76.4883"/><line style="stroke:#181818;stroke-width:0.5;" x1="1114" x2="1282" y1="84.4883" y2="84.4883"/><text fill="#000000" font-family="sans-serif" font-size="14" lengthAdjust="spacing" textLength="64" x="1119" y="102.0234">FindDID()</text><text fill="#000000" font-family="sans-serif" font-size="14" lengthAdjust="spacing" textLength="95" x="1119" y="118.5117">FindRegistry()</text><text fill="#000000" font-family="sans-serif" font-size="14" lengthAdjust="spacing" textLength="100" x="1119" y="135">ListRegistries()</text></g><!--MD5=[91221848cc6fc2b51471cfb300e81a0a]
class Query--><g id="elem_Query"><rect codeLine="24" fill="#F1F1F1" height="97.4648" id="Query" rx="2.5" ry="2.5" style="stroke:#181818;stroke-width:0.5;" width="233" x="210.5" y="406.9883"/><ellipse cx="302.25" cy="422.9883" fill="#ADD1B2" rx="11" ry="11" style="stroke:#181818;stroke-width:1.0;"/><path d="M304.7231,429.1313 Q304.1421,429.4302 303.5029,429.5796 Q302.8638,429.729 302.1582,429.729 Q299.6514,429.729 298.3315,428.0771 Q297.0117,426.4253 297.0117,423.3042 Q297.0117,420.1748 298.3315,418.5229 Q299.6514,416.8711 302.1582,416.8711 Q302.8638,416.8711 303.5112,417.0205 Q304.1587,417.1699 304.7231,417.4688 L304.7231,420.1914 Q304.0923,419.6104 303.4988,419.3406 Q302.9053,419.0708 302.2744,419.0708 Q300.9297,419.0708 300.2449,420.1375 Q299.5601,421.2041 299.5601,423.3042 Q299.5601,425.396 300.2449,426.4626 Q300.9297,427.5293 302.2744,427.5293 Q302.9053,427.5293 303.4988,427.2595 Q304.0923,426.9897 304.7231,426.4087 Z " fill="#000000"/><text fill="#000000" font-family="sans-serif" font-size="14" lengthAdjust="spacing" textLength="41" x="322.75" y="428.2793">Query</text><line style="stroke:#181818;stroke-width:0.5;" x1="211.5" x2="442.5" y1="438.9883" y2="438.9883"/><line style="stroke:#181818;stroke-width:0.5;" x1="211.5" x2="442.5" y1="446.9883" y2="446.9883"/><text fill="#000000" font-family="sans-serif" font-size="14" lengthAdjust="spacing" textLength="188" x="216.5" y="464.5234">EntityHasRight(entity, right)</text><text fill="#000000" font-family="sans-serif" font-size="14" lengthAdjust="spacing" textLength="221" x="216.5" y="481.0117">RecognizedRegistry(registryDID)</text><text fill="#000000" font-family="sans-serif" font-size="14" lengthAdjust="spacing" textLength="180" x="216.5" y="497.5">GetResource(resourceDID)</text></g><!--MD5=[20b457f90cb62bf8a3e8ba178c7a9406]
class Lookup--><g id="elem_Lookup"><rect codeLine="30" fill="#F1F1F1" height="113.9531" id="Lookup" rx="2.5" ry="2.5" style="stroke:#181818;stroke-width:0.5;" width="134" x="988" y="398.9883"/><ellipse cx="1025.95" cy="414.9883" fill="#ADD1B2" rx="11" ry="11" style="stroke:#181818;stroke-width:1.0;"/><path d="M1028.4231,421.1313 Q1027.8421,421.4302 1027.2029,421.5796 Q1026.5638,421.729 1025.8582,421.729 Q1023.3514,421.729 1022.0315,420.0771 Q1020.7117,418.4253 1020.7117,415.3042 Q1020.7117,412.1748 1022.0315,410.5229 Q1023.3514,408.8711 1025.8582,408.8711 Q1026.5638,408.8711 1027.2112,409.0205 Q1027.8587,409.1699 1028.4231,409.4688 L1028.4231,412.1914 Q1027.7923,411.6104 1027.1988,411.3406 Q1026.6053,411.0708 1025.9744,411.0708 Q1024.6297,411.0708 1023.9449,412.1375 Q1023.2601,413.2041 1023.2601,415.3042 Q1023.2601,417.396 1023.9449,418.4626 Q1024.6297,419.5293 1025.9744,419.5293 Q1026.6053,419.5293 1027.1988,419.2595 Q1027.7923,418.9897 1028.4231,418.4087 Z " fill="#000000"/><text fill="#000000" font-family="sans-serif" font-size="14" lengthAdjust="spacing" textLength="51" x="1045.05" y="420.2793">Lookup</text><line style="stroke:#181818;stroke-width:0.5;" x1="989" x2="1121" y1="430.9883" y2="430.9883"/><line style="stroke:#181818;stroke-width:0.5;" x1="989" x2="1121" y1="438.9883" y2="438.9883"/><text fill="#000000" font-family="sans-serif" font-size="14" lengthAdjust="spacing" textLength="93" x="994" y="456.5234">DIDMethods()</text><text fill="#000000" font-family="sans-serif" font-size="14" lengthAdjust="spacing" textLength="47" x="994" y="473.0117">Roles()</text><text fill="#000000" font-family="sans-serif" font-size="14" lengthAdjust="spacing" textLength="113" x="994" y="489.5">ResourceTypes()</text><text fill="#000000" font-family="sans-serif" font-size="14" lengthAdjust="spacing" textLength="122" x="994" y="505.9883">AssuranceLevels()</text></g><!--MD5=[7d2c4ae7970c32f414f93e7b18676929]
class Metadata--><g id="elem_Metadata"><rect codeLine="41" fill="#F1F1F1" height="146.9297" id="Metadata" rx="2.5" ry="2.5" style="stroke:#181818;stroke-width:0.5;" width="230" x="1165" y="381.4883"/><ellipse cx="1244.25" cy="397.4883" fill="#ADD1B2" rx="11" ry="11" style="stroke:#181818;stroke-width:1.0;"/><path d="M1246.7231,403.6313 Q1246.1421,403.9302 1245.5029,404.0796 Q1244.8638,404.229 1244.1582,404.229 Q1241.6514,404.229 1240.3315,402.5771 Q1239.0117,400.9253 1239.0117,397.8042 Q1239.0117,394.6748 1240.3315,393.0229 Q1241.6514,391.3711 1244.1582,391.3711 Q1244.8638,391.3711 1245.5112,391.5205 Q1246.1587,391.6699 1246.7231,391.9688 L1246.7231,394.6914 Q1246.0923,394.1104 1245.4988,393.8406 Q1244.9053,393.5708 1244.2744,393.5708 Q1242.9297,393.5708 1242.2449,394.6375 Q1241.5601,395.7041 1241.5601,397.8042 Q1241.5601,399.896 1242.2449,400.9626 Q1242.9297,402.0293 1244.2744,402.0293 Q1244.9053,402.0293 1245.4988,401.7595 Q1246.0923,401.4897 1246.7231,400.9087 Z " fill="#000000"/><text fill="#000000" font-family="sans-serif" font-size="14" lengthAdjust="spacing" textLength="63" x="1264.75" y="402.7793">Metadata</text><line style="stroke:#181818;stroke-width:0.5;" x1="1166" x2="1394" y1="413.4883" y2="413.4883"/><text fill="#000000" font-family="sans-serif" font-size="14" lengthAdjust="spacing" textLength="178" x="1171" y="431.0234">TrustRegistryName: string</text><text fill="#000000" font-family="sans-serif" font-size="14" lengthAdjust="spacing" textLength="146" x="1171" y="447.5117">RawAPIEndpoint: URL</text><text fill="#000000" font-family="sans-serif" font-size="14" lengthAdjust="spacing" textLength="151" x="1171" y="464">AuthorityClaim: string</text><text fill="#000000" font-family="sans-serif" font-size="14" lengthAdjust="spacing" textLength="150" x="1171" y="480.4883">lastUpdated: datetime</text><line style="stroke:#181818;stroke-width:0.5;" x1="1166" x2="1394" y1="487.4414" y2="487.4414"/><text fill="#000000" font-family="sans-serif" font-size="14" lengthAdjust="spacing" textLength="218" x="1171" y="504.9766">EGFURI: URI ' (duplicated above)</text><text fill="#000000" font-family="sans-serif" font-size="14" lengthAdjust="spacing" textLength="84" x="1171" y="521.4648">Languages()</text></g><!--MD5=[bf1d94275102545be2386a1b3bf8026a]
link EGF to TrustRegistry--><g id="link_EGF_TrustRegistry"><path codeLine="54" d="M1055,119.6383 C1055,146.9183 1055,190.3683 1055,221.7983 " fill="none" id="EGF-TrustRegistry" style="stroke:#181818;stroke-width:1.0;"/><text fill="#000000" font-family="sans-serif" font-size="13" lengthAdjust="spacing" textLength="8" x="1046.075" y="140.1424">1</text><text fill="#000000" font-family="sans-serif" font-size="13" lengthAdjust="spacing" textLength="8" x="1046.3547" y="210.6046">1</text></g><!--MD5=[6bd576f5a58fdbd80d7c871ce43d025e]
reverse link TrustRegistry to Query--><g id="link_TrustRegistry_Query"><path codeLine="56" d="M933.41,294.4683 C799.7,329.6483 586,385.8583 451.24,421.3083 " fill="none" id="TrustRegistry-backto-Query" style="stroke:#181818;stroke-width:1.0;"/><polygon fill="none" points="931.57,287.7183,952.69,289.3983,935.13,301.2583,931.57,287.7183" style="stroke:#181818;stroke-width:1.0;"/></g><!--MD5=[7807a5622c125705b8c2ec3a79097742]
reverse link TrustRegistry to Lookup--><g id="link_TrustRegistry_Lookup"><path codeLine="57" d="M1055,322.6683 C1055,345.8383 1055,372.2483 1055,395.2883 " fill="none" id="TrustRegistry-backto-Lookup" style="stroke:#181818;stroke-width:1.0;"/><polygon fill="none" points="1048,322.7583,1055,302.7583,1062,322.7583,1048,322.7583" style="stroke:#181818;stroke-width:1.0;"/></g><!--MD5=[4fcd97d6d76d6a70e90b9d89e7182c02]
link Query to Resource--><g id="link_Query_Resource"><path codeLine="139" d="M210,490.9883 C161.14,490.9883 132.37,544.5683 117.19,587.3583 " fill="none" id="Query-to-Resource" style="stroke:#181818;stroke-width:1.0;"/><polygon fill="#181818" points="115.63,591.8883,122.3427,584.6814,117.2582,587.1608,114.7788,582.0763,115.63,591.8883" style="stroke:#181818;stroke-width:1.0;"/></g><!--MD5=[0af8b4f6ffc88b05ef2341d31cd650c5]
link Query to RegistryRecognitionResponse--><g id="link_Query_RegistryRecognitionResponse"><path codeLine="140" d="M445,474.9883 C501.64,474.9883 440.13,540.5583 387.08,588.8983 " fill="none" id="Query-to-RegistryRecognitionResponse" style="stroke:#181818;stroke-width:1.0;"/><polygon fill="#181818" points="383.42,592.2083,392.7731,589.123,387.1229,588.8485,387.3974,583.1983,383.42,592.2083" style="stroke:#181818;stroke-width:1.0;"/></g><!--MD5=[f05d9eb1716aa7412412a87c1e21daaf]
link Lookup to DIDMethodList--><g id="link_Lookup_DIDMethodList"><path codeLine="143" d="M1123,450.9883 C1159.19,450.9883 1119.68,505.9483 1148,528.4883 C1164.23,541.4083 1222.97,526.2383 1241,536.4883 C1272.41,554.3383 1293.96,591.6283 1305.38,616.0983 " fill="none" id="Lookup-to-DIDMethodList" style="stroke:#181818;stroke-width:1.0;"/><polygon fill="#181818" points="1307.44,620.6483,1307.3829,610.7996,1305.3828,616.0911,1300.0913,614.0911,1307.44,620.6483" style="stroke:#181818;stroke-width:1.0;"/></g><!--MD5=[e30c655715068597279f7138abd8a241]
link Lookup to RoleList--><g id="link_Lookup_RoleList"><path codeLine="144" d="M1123,466.9883 C1124.97,466.9883 1163.46,568.7983 1181.19,615.9883 " fill="none" id="Lookup-to-RoleList" style="stroke:#181818;stroke-width:1.0;"/><polygon fill="#181818" points="1182.92,620.5783,1183.5052,610.7468,1181.1644,615.8966,1176.0146,613.5558,1182.92,620.5783" style="stroke:#181818;stroke-width:1.0;"/></g><!--MD5=[2528e71ba5d792971d26fb2921dfe3c1]
link Lookup to ResourceTypeList--><g id="link_Lookup_ResourceTypeList"><path codeLine="146" d="M1123,482.9883 C1180.91,482.9883 1110.74,574.2283 1074.32,617.3783 " fill="none" id="Lookup-to-ResourceTypeList" style="stroke:#181818;stroke-width:1.0;"/><polygon fill="#181818" points="1071.25,620.9883,1080.1177,616.7031,1074.4804,617.1719,1074.0115,611.5345,1071.25,620.9883" style="stroke:#181818;stroke-width:1.0;"/></g><!--MD5=[04f4806d899953f016cee43d790b970c]
link Lookup to AssuranceLevelsList--><g id="link_Lookup_AssuranceLevelsList"><path codeLine="147" d="M987,498.9883 C928.59,498.9883 897.42,576.2583 885.21,616.1883 " fill="none" id="Lookup-to-AssuranceLevelsList" style="stroke:#181818;stroke-width:1.0;"/><polygon fill="#181818" points="883.84,620.8083,890.2206,613.3057,885.2531,616.0121,882.5468,611.0447,883.84,620.8083" style="stroke:#181818;stroke-width:1.0;"/></g><!--MD5=[945977dd92952aaf08173b6b5f627157]
link TrustRegistry to Metadata--><g id="link_TrustRegistry_Metadata"><path codeLine="150" d="M1100.8,301.4683 C1126.42,323.2683 1159.25,351.2183 1189.79,377.2083 " fill="none" id="TrustRegistry-to-Metadata" style="stroke:#181818;stroke-width:1.0;"/><polygon fill="#181818" points="1193.52,380.3883,1189.2541,371.5112,1189.7107,377.1496,1184.0723,377.6062,1193.52,380.3883" style="stroke:#181818;stroke-width:1.0;"/></g><!--MD5=[ae259283dbc4308d752fceb6f68ec68d]
reverse link DIDMethodList to DIDMethod--><g id="link_DIDMethodList_DIDMethod"><path codeLine="154" d="M1333.94,671.0083 C1353.96,702.2183 1385.06,750.6983 1402.98,778.6383 " fill="none" id="DIDMethodList-backto-DIDMethod" style="stroke:#181818;stroke-width:1.0;"/><polygon fill="none" points="1326.93,660.0783,1326.8003,667.2882,1333.4058,670.181,1333.5354,662.971,1326.93,660.0783" style="stroke:#181818;stroke-width:1.0;"/><text fill="#000000" font-family="sans-serif" font-size="13" lengthAdjust="spacing" textLength="28" x="1367.4496" y="768.095">1...n</text></g><!--MD5=[c56ecf5dca3fc08e1cd40be9bfd1c74a]
reverse link RoleList to Role--><g id="link_RoleList_Role"><path codeLine="155" d="M1202,672.2783 C1214.18,703.5083 1232.73,751.0683 1243.48,778.6383 " fill="none" id="RoleList-backto-Role" style="stroke:#181818;stroke-width:1.0;"/><polygon fill="none" points="1197.3,660.2183,1195.7511,667.2611,1201.6564,671.3996,1203.2053,664.3568,1197.3,660.2183" style="stroke:#181818;stroke-width:1.0;"/><text fill="#000000" font-family="sans-serif" font-size="13" lengthAdjust="spacing" textLength="28" x="1209.4278" y="768.095">0...n</text></g><!--MD5=[82c69f6d312e4cbedeb9df4cfebb0699]
reverse link ResourceTypeList to ResourceType--><g id="link_ResourceTypeList_ResourceType"><path codeLine="156" d="M1055,673.2083 C1055,698.7983 1055,734.8783 1055,762.0983 " fill="none" id="ResourceTypeList-backto-ResourceType" style="stroke:#181818;stroke-width:1.0;"/><polygon fill="none" points="1055,660.3183,1051,666.3183,1055,672.3183,1059,666.3183,1055,660.3183" style="stroke:#181818;stroke-width:1.0;"/><text fill="#000000" font-family="sans-serif" font-size="13" lengthAdjust="spacing" textLength="28" x="1024.5938" y="751.6381">0...n</text></g><!--MD5=[fabc3d85dccc03f9ccf95077b79ea457]
reverse link AssuranceLevelsList to AssuranceLevel--><g id="link_AssuranceLevelsList_AssuranceLevel"><path codeLine="174" d="M868.34,672.2983 C858.51,700.7383 843.99,742.6883 834.28,770.7683 " fill="none" id="AssuranceLevelsList-backto-AssuranceLevel" style="stroke:#181818;stroke-width:1.0;"/><polygon fill="none" points="872.51,660.2383,866.7705,664.6039,868.5928,671.5809,874.3323,667.2153,872.51,660.2383" style="stroke:#181818;stroke-width:1.0;"/><text fill="#000000" font-family="sans-serif" font-size="13" lengthAdjust="spacing" textLength="28" x="805.5128" y="760.4379">0...n</text></g><!--MD5=[a349d4b3483cbd5afe0425cc97c3dbc7]
@startuml



title Trust Over IP Trust Registry Protocol v2 Early Exploration

package EGF {

}

' object Error 
class TrustRegistry {
    EGFURI
    RegistryMetadata: Metadata
}

class RegistryOfRegistries {
    FindDID()
    FindRegistry()
    ListRegistries()


}

class Query {
    EntityHasRight(entity, right)
    RecognizedRegistry(registryDID)
    GetResource(resourceDID)  
}

class Lookup {
    DIDMethods() 
    Roles()
    ResourceTypes()
    ' CredentialTypes()
    ' CredentialSchemas()
    ' PresentationRequests()
    ' Overlays()
    AssuranceLevels()
}

class Metadata {
    EGFURI: URI ' (duplicated above)
    TrustRegistryName: string
    RawAPIEndpoint: URL 
    AuthorityClaim: string 
    lastUpdated: datetime 
    

    Languages() 
}

' inheritance

EGF "1" - - "1" TrustRegistry

TrustRegistry <|- - Query
TrustRegistry <|- - Lookup 


package QueryDataObjects {
    object AuthorizationResponse 
    object RegistryRecognitionResponse {
        identifier: DID
        name: string
        peerType: enum
        description: string

    }
    object Resource {
        identifier: URI
        lastUpdated: datetime
        datatype: string
        payloadJSON: JSON
    }
    
}
package Lookups {
    package LookupLists {
        object DIDMethodList
        object RoleList
        object ResourceTypeList
        
        object AssuranceLevelsList
        ' object CredentialTypeList 
        ' object CredentialSchemaList
        ' object PresentationRequestList
        ' object OverlayList 
        
    }

    package LookupDataObjects {
    
        
        object DIDMethod {
            didmethod: string 
        }
        object Role {
            rolename: string 
        }
        ' object CredentialType {
        '     typeDID: string
        '     credentialSchema: CredentialSchema
        '     ?JustResources?: question

        ' }
        ' object CredentialSchema {
        '     identifier: string
        '     ?JustResources?: question
        ' }
        ' object PresentationRequest{
        '     identifier: string
        '     ?JustResources?: question

        ' }
        ' object Overlay {
        '     overlayIdentifier: DID
        '     overlayPayload: string 
        '     ?JustResources?: question
        ' }
        object ResourceType {
            resourceTypeIdentifier: DID
            resourceTypeString: string
            description: string 
        }
        object AssuranceLevel {
            AssuranceIdentifier: string
            AssuranceName: string
            'TODO multilingual
        }

    }
}






Query::GetResource - -> Resource
Query::RecognizedRegistry - -> RegistryRecognitionResponse


Lookup::DIDMethods - -> DIDMethodList
Lookup::Roles - -> RoleList

Lookup::ResourceTypes - -> ResourceTypeList  
Lookup::AssuranceLevels - -> AssuranceLevelsList

' METADATA related objects
TrustRegistry - -> Metadata 



DIDMethodList o- - "1...n" DIDMethod 
RoleList o- - "0...n" Role
ResourceTypeList o- - "0...n" ResourceType


'' High-Level lots of specific classes
' Lookup::CredentialTypes - -> CredentialTypeList
' Lookup::CredentialSchemas - -> CredentialSchemaList
' Lookup::PresentationRequests - -> PresentationRequestList
' Lookup::Overlays - -> OverlayList
' Lookup::CredentialTypes - -> CredentialTypeList
' Lookup::CredentialSchemas - -> CredentialSchemaList
' Lookup::PresentationRequests - -> PresentationRequestList
' Lookup::Overlays - -> OverlayList
' CredentialTypeList o- - "0..n" CredentialType
' CredentialSchemaList o- - "0..n" CredentialSchema
' CredentialType o- - CredentialSchema
' PresentationRequestList o- - "0..n" PresentationRequest
' OverlayList o- - "0...n" Overlay

AssuranceLevelsList o- - "0...n" AssuranceLevel

'' Use Resources for assets
' Resource <|- - Overlay
' Resource <|- - CredentialSchema
' Resource <|- - PresentationRequest
' Resource <|- - CredentialType


@enduml

@startuml



title Trust Over IP Trust Registry Protocol v2 Early Exploration

package EGF {

}

class TrustRegistry {
    EGFURI
    RegistryMetadata: Metadata
}

class RegistryOfRegistries {
    FindDID()
    FindRegistry()
    ListRegistries()


}

class Query {
    EntityHasRight(entity, right)
    RecognizedRegistry(registryDID)
    GetResource(resourceDID)  
}

class Lookup {
    DIDMethods() 
    Roles()
    ResourceTypes()
    AssuranceLevels()
}

class Metadata {
    EGFURI: URI ' (duplicated above)
    TrustRegistryName: string
    RawAPIEndpoint: URL 
    AuthorityClaim: string 
    lastUpdated: datetime 
    

    Languages() 
}


EGF "1" - - "1" TrustRegistry

TrustRegistry <|- - Query
TrustRegistry <|- - Lookup 


package QueryDataObjects {
    object AuthorizationResponse 
    object RegistryRecognitionResponse {
        identifier: DID
        name: string
        peerType: enum
        description: string

    }
    object Resource {
        identifier: URI
        lastUpdated: datetime
        datatype: string
        payloadJSON: JSON
    }
    
}
package Lookups {
    package LookupLists {
        object DIDMethodList
        object RoleList
        object ResourceTypeList
        
        object AssuranceLevelsList
        
    }

    package LookupDataObjects {
    
        
        object DIDMethod {
            didmethod: string 
        }
        object Role {
            rolename: string 
        }


        object ResourceType {
            resourceTypeIdentifier: DID
            resourceTypeString: string
            description: string 
        }
        object AssuranceLevel {
            AssuranceIdentifier: string
            AssuranceName: string
        }

    }
}






Query::GetResource - -> Resource
Query::RecognizedRegistry - -> RegistryRecognitionResponse


Lookup::DIDMethods - -> DIDMethodList
Lookup::Roles - -> RoleList

Lookup::ResourceTypes - -> ResourceTypeList  
Lookup::AssuranceLevels - -> AssuranceLevelsList

TrustRegistry - -> Metadata 



DIDMethodList o- - "1...n" DIDMethod 
RoleList o- - "0...n" Role
ResourceTypeList o- - "0...n" ResourceType



AssuranceLevelsList o- - "0...n" AssuranceLevel



@enduml

PlantUML version 1.2022.7(Mon Aug 22 10:01:30 PDT 2022)
(GPL source distribution)
Java Runtime: Java(TM) SE Runtime Environment
JVM: Java HotSpot(TM) 64-Bit Server VM
Default Encoding: UTF-8
Language: en
Country: CA
--></g></svg>